<svg width="34" height="30" viewBox="0 0 34 30" fill="none" xmlns="http://www.w3.org/2000/svg">
<path d="M16.5588 5.45207C16.092 5.67162 15.9515 6.09095 15.9555 6.57655C15.9759 9.20396 15.9822 11.1608 15.9743 12.4472C15.9723 12.7643 15.9677 13.1292 15.9604 13.542C15.9598 13.5624 15.9525 13.5806 15.9387 13.5964C15.9255 13.6115 15.913 13.6191 15.9011 13.6191C15.8827 13.6191 15.8647 13.6142 15.8489 13.605C15.8331 13.5958 15.82 13.5826 15.8111 13.5667C15.5975 13.1975 15.3407 12.8626 15.0407 12.5619C14.8897 12.4096 14.2683 11.9049 13.1764 11.0478C12.8877 10.821 12.5633 10.4992 12.2033 10.0825C11.8611 9.68691 11.6534 9.23429 11.5802 8.72463C11.4754 7.99278 11.5064 7.18774 11.6732 6.30952C11.7701 5.80118 11.9847 5.25592 12.317 4.67374C12.5339 4.29331 12.8946 3.84167 13.399 3.31882C14.5699 2.10501 15.7109 1.00525 16.8219 0.0195638C16.8365 0.00646665 16.8557 -0.000521223 16.8754 3.03326e-05C16.895 0.000581888 16.9137 0.00863104 16.9277 0.0225306C17.2817 0.371313 17.5989 0.673612 17.8791 0.92943C18.2358 1.25514 18.5397 1.54887 18.7909 1.81062C18.9591 1.986 19.6454 2.66082 20.85 3.83507C21.0979 4.07771 21.3827 4.44627 21.7045 4.94076C21.9649 5.34097 22.1512 5.75701 22.2633 6.18887C22.438 6.8594 22.5003 7.58301 22.4502 8.35969C22.4133 8.93132 22.2389 9.44 21.927 9.8857C21.718 10.1844 21.4595 10.4603 21.1516 10.7135C20.0341 11.6313 19.3606 12.1947 19.1311 12.4037C18.8265 12.6812 18.5397 13.0501 18.2707 13.5103C18.2621 13.5242 18.2516 13.5347 18.2391 13.542C18.2213 13.5525 18.2071 13.5581 18.1965 13.5588C18.1867 13.5594 18.1768 13.5579 18.1676 13.5543C18.1584 13.5508 18.15 13.5453 18.1431 13.5383C18.1362 13.5313 18.1308 13.5229 18.1274 13.5136C18.124 13.5043 18.1226 13.4945 18.1234 13.4846C18.156 13.0455 18.1224 12.5174 18.1214 12.2237C18.1187 8.61188 18.1174 6.715 18.1174 6.53303C18.1174 5.81437 17.7815 5.42471 17.1096 5.36405C16.9066 5.34559 16.7229 5.37493 16.5588 5.45207Z" fill="#F8385D"/>
<path d="M15.293 15.4171C15.5027 15.6558 15.6913 15.9261 15.8587 16.2281C15.9168 16.3329 15.9464 16.5373 15.9478 16.8412C15.9682 20.8822 15.984 23.3989 15.9952 24.3912C15.9959 24.4268 15.9876 24.4508 15.9705 24.4634C15.9527 24.4766 15.9296 24.4762 15.9013 24.4624C15.8835 24.4532 15.8696 24.437 15.8597 24.4139C15.4866 23.5265 14.9634 22.7214 14.2902 21.9988C13.7904 21.4634 13.229 20.9324 12.606 20.4056C11.1772 19.199 9.52889 17.9545 7.66103 16.6721C7.46718 16.5389 7.12763 16.2558 6.64237 15.8226C6.22238 15.4468 5.92173 15.1085 5.74041 14.8079C5.39888 14.2415 5.20669 13.7289 5.16383 13.27C5.14076 13.0228 5.13647 12.5237 5.15098 11.7727C5.17669 10.3631 5.20636 8.95341 5.23998 7.54378C5.24064 7.49235 5.24658 7.45411 5.25778 7.42906C5.26294 7.4176 5.27062 7.40746 5.28025 7.39941C5.28989 7.39135 5.30122 7.38558 5.31341 7.38253C5.32559 7.37948 5.33831 7.37924 5.3506 7.38182C5.36289 7.3844 5.37444 7.38973 5.38438 7.39741C6.02985 7.88927 6.77819 8.44244 7.62938 9.05693C8.17925 9.45318 8.70869 9.84482 9.21769 10.2318C9.62911 10.545 10.3521 11.1153 11.3865 11.9428C11.498 12.0318 12.2536 12.6516 13.6533 13.8021C13.894 13.9999 14.2058 14.2959 14.5889 14.6902C15.0352 15.1484 15.27 15.3907 15.293 15.4171Z" fill="#F8385D"/>
<path d="M19.7422 22.1541C19.1349 22.8573 18.6553 23.6771 18.2538 24.4812C18.2465 24.4959 18.2348 24.508 18.2203 24.5158C18.2058 24.5236 18.1891 24.5267 18.1727 24.5247C18.1384 24.5201 18.1212 24.502 18.1212 24.4703C18.1212 20.8163 18.1186 18.2816 18.1133 16.866C18.112 16.5067 18.1473 16.2558 18.2191 16.1134C18.3292 15.8938 18.4753 15.6772 18.6573 15.4636C18.9975 15.0641 19.309 14.7331 19.5919 14.4707C20.2584 13.8549 20.8261 13.3594 21.2949 12.9842C21.9542 12.4581 22.5235 12.0008 23.0029 11.6125C23.4459 11.2535 24.2658 10.6581 24.874 10.1587C25.7681 9.42386 26.764 8.70586 27.5334 8.09466C27.7714 7.90543 28.0006 7.70698 28.2208 7.49929C28.2304 7.49018 28.2424 7.48396 28.2555 7.48132C28.2685 7.47869 28.282 7.47974 28.2944 7.48437C28.3069 7.489 28.3178 7.49702 28.3259 7.50752C28.334 7.51802 28.3391 7.53058 28.3404 7.54379C28.3839 7.93049 28.3414 8.35674 28.3563 8.73355C28.3859 9.47067 28.4011 10.1926 28.4017 10.8994C28.4017 11.5591 28.4561 12.3364 28.468 12.91C28.4911 13.9478 28.1552 14.8402 27.4602 15.5872C27.1972 15.8701 26.9473 16.1071 26.7106 16.2983C26.0921 16.8001 25.5409 17.224 25.057 17.5701C24.6614 17.8537 24.3347 18.1002 24.0769 18.3099C23.624 18.6798 22.8258 19.2376 22.2572 19.7222C22.215 19.7578 21.9453 19.9942 21.4482 20.4313C20.8423 20.9647 20.2736 21.5389 19.7422 22.1541Z" fill="#F8385D"/>
<path d="M13.1618 24.8362C14.0453 25.7434 14.8744 26.6599 15.6491 27.5856C15.7111 27.6594 15.7813 27.7742 15.8598 27.9298C15.8967 28.0023 15.9218 28.1295 15.935 28.3115C15.9706 28.8199 15.9762 29.3328 15.9518 29.8504C15.9439 30.0218 15.8885 30.0389 15.7856 29.9018C15.6023 29.6565 15.3993 29.4271 15.1764 29.2135C14.9727 29.019 14.6447 28.7882 14.1924 28.5212C13.8251 28.3043 13.6379 28.1935 13.6306 28.1889C12.8183 27.699 11.9948 27.2292 11.1601 26.7796C10.0795 26.1974 9.49895 25.8842 9.41852 25.84C8.72359 25.4603 8.08569 25.1194 7.50483 24.8174C7.0189 24.5642 6.58573 24.3259 6.2053 24.1024C6.00948 23.9883 5.57927 23.7414 4.91467 23.3616C4.556 23.1572 4.12677 22.8569 3.62701 22.4607C2.77779 21.7868 2.10693 20.9736 1.61442 20.0208C1.35992 19.5283 1.10773 18.9178 0.857841 18.1892C0.503784 17.1534 0.220935 16.0596 0.00929125 14.9078C-0.025653 14.7179 0.0379712 14.6754 0.200165 14.7802C0.912895 15.2411 1.56761 15.6545 2.16429 16.0204C2.84933 16.441 3.41174 16.803 3.85151 17.1063C5.31785 18.117 6.45221 18.9323 7.25461 19.5521C8.48491 20.5028 9.6206 21.4473 10.6617 22.3855C11.2861 22.9486 12.1194 23.7655 13.1618 24.8362Z" fill="#F8385D"/>
<path d="M32.6538 19.2831C32.2177 20.3354 31.6045 21.266 30.7827 22.0503C30.1913 22.614 29.438 23.1619 28.5229 23.694C28.3079 23.8192 27.9964 23.9874 27.5883 24.1983C27.3938 24.2992 27.1284 24.4466 26.7921 24.6404C26.5284 24.7921 26.2627 24.9394 25.995 25.0825C25.4847 25.3555 25.1244 25.5549 24.914 25.6808C24.4176 25.9775 23.9626 26.1991 23.4711 26.4789C23.1263 26.6754 22.2665 27.1702 20.8918 27.9634C20.0881 28.4276 19.5089 28.7948 19.1542 29.0651C18.7988 29.3368 18.5034 29.6239 18.268 29.9266C18.1823 30.0373 18.1401 30.0228 18.1414 29.883C18.1454 29.5507 18.1372 29.1512 18.1167 28.6844C18.1016 28.3185 18.2021 27.9944 18.4184 27.7122C18.7625 27.2645 19.234 26.7054 19.8326 26.0349C20.1807 25.6452 20.8585 24.9513 21.866 23.9531C22.4613 23.3643 22.9377 22.908 23.2951 22.5843C25.4893 20.5984 27.877 18.7296 30.4583 16.9777C31.6016 16.2024 32.7369 15.4596 33.8644 14.7496C33.8696 14.7461 33.8756 14.7444 33.8818 14.7445C33.888 14.7446 33.894 14.7465 33.8992 14.7501C33.9043 14.7537 33.9083 14.7587 33.9108 14.7646C33.9132 14.7705 33.9139 14.7769 33.9128 14.7832C33.7177 15.7715 33.5334 16.5904 33.36 17.2398C33.1905 17.8761 32.9552 18.5572 32.6538 19.2831Z" fill="#F8385D"/>
</svg>
